<?xml version="1.0" encoding="UTF-8"?>
<svg version="1.1" xmlns="http://www.w3.org/2000/svg" width="1500" height="879">
<path d="M0 0 C495 0 990 0 1500 0 C1500 290.07 1500 580.14 1500 879 C1005 879 510 879 0 879 C0 588.93 0 298.86 0 0 Z " fill="#FEFEFE" transform="translate(0,0)"/>
<path d="M0 0 C1.75042803 -0.00543973 3.50085146 -0.01257261 5.25126648 -0.02124023 C9.95286371 -0.03927854 14.65410472 -0.03248195 19.35570717 -0.01972389 C24.32987934 -0.00946815 29.30402464 -0.0190263 34.27819824 -0.02526855 C42.64336502 -0.03251969 51.00839 -0.02303555 59.37353516 -0.00390625 C68.9493229 0.01774325 78.52476822 0.01088804 88.10054731 -0.01121187 C96.39949129 -0.02957653 104.69833423 -0.03181982 112.99729204 -0.0214572 C117.91883948 -0.01532138 122.84022824 -0.01410174 127.76176453 -0.02760315 C146.5134998 -0.07196495 165.06981734 0.14697679 183.70703125 2.390625 C184.40394105 2.47441123 185.10085085 2.55819746 185.81887913 2.64452267 C196.4545938 3.95986795 206.56031159 6.02924119 216.69726562 9.51757812 C217.40278564 9.74678955 218.10830566 9.97600098 218.83520508 10.2121582 C253.91339148 21.61948289 282.71888501 43.2717343 299.69726562 76.51757812 C307.67144701 93.8604406 311.40880078 111.65169725 313.69726562 130.51757812 C314.24068604 130.10475586 314.78410645 129.69193359 315.34399414 129.26660156 C316.05998779 128.72551758 316.77598145 128.18443359 317.51367188 127.62695312 C318.22209229 127.09038086 318.9305127 126.55380859 319.66040039 126.00097656 C327.74282859 120.11474454 336.77801861 119.15629349 346.50976562 119.26757812 C347.38560303 119.2757959 348.26144043 119.28401367 349.16381836 119.29248047 C360.8663489 119.49355859 369.73545905 121.05455239 379.69726562 127.51757812 C380.29410156 127.89785156 380.8909375 128.278125 381.50585938 128.66992188 C388.55526206 133.81507032 393.58387021 143.92706715 395.02728158 152.47103846 C395.7240745 158.62177035 395.84029283 164.70376445 395.83097839 170.88998413 C395.83437673 172.56209172 395.83437673 172.56209172 395.83784372 174.26797926 C395.84415191 177.9870945 395.8433564 181.70617299 395.8425293 185.42529297 C395.84552274 188.09839513 395.84889762 190.77149446 395.85270691 193.44459534 C395.86099052 199.94218546 395.86376069 206.4397665 395.86431929 212.93736146 C395.86479545 218.22118809 395.86685519 223.50501175 395.87001991 228.78883743 C395.87881954 243.78708857 395.88344027 258.78533257 395.88268944 273.78358631 C395.88264948 274.59105751 395.88260953 275.39852872 395.88256836 276.23046875 C395.88250704 277.44316311 395.88250704 277.44316311 395.88244448 278.68035634 C395.882038 291.78324768 395.89160973 304.8861103 395.90570673 317.98899333 C395.92008508 331.46021125 395.92697614 344.93141516 395.92611295 358.40264094 C395.92578153 365.95882229 395.92850466 373.5149735 395.939291 381.07114792 C395.94841513 387.50379024 395.95055551 393.93638875 395.94378158 400.36903475 C395.94052626 403.64737667 395.94152007 406.92561755 395.94913483 410.2039547 C395.95687217 413.76644585 395.95219825 417.32871826 395.94450378 420.89120483 C395.94964735 421.91525339 395.95479091 422.93930194 395.96009034 423.99438226 C395.89240831 438.2307315 393.09736535 452.13736386 382.69726562 462.51757812 C376.63297785 467.1855509 370.1035823 469.78736297 362.69726562 471.51757812 C361.98183594 471.700625 361.26640625 471.88367188 360.52929688 472.07226562 C346.24224024 474.31878212 331.33162082 473.42380555 318.82226562 465.76757812 C309.38148829 458.81667613 305.34892705 450.4725624 301.69726562 439.51757812 C301.59095777 436.50471203 301.54240262 433.51438502 301.53904724 430.50105286 C301.53410926 429.56743964 301.52917129 428.63382643 301.52408367 427.67192191 C301.50867413 424.53038793 301.50033869 421.38887444 301.49194336 418.24731445 C301.48236755 416.00059325 301.47235765 413.75387385 301.46194458 411.50715637 C301.43485723 405.39597024 301.41386841 399.28477636 301.39394259 393.17356324 C301.37210665 386.79136882 301.34470628 380.40919839 301.31788635 374.02702332 C301.27360834 363.31107561 301.23277856 352.59512112 301.19458008 341.87915039 C301.15522391 330.84105468 301.1137974 319.80296994 301.06958008 308.76489258 C301.06685581 308.08464576 301.06413153 307.40439894 301.06132471 306.70353857 C301.04764521 303.29098209 301.03392494 299.87842578 301.0201844 296.46586955 C300.90622344 268.14979532 300.79948653 239.833697 300.69726562 211.51757812 C300.17487305 212.58919189 299.65248047 213.66080566 299.11425781 214.76489258 C298.40780581 216.19950648 297.7010857 217.63398838 296.99414062 219.06835938 C296.65237793 219.77126099 296.31061523 220.4741626 295.95849609 221.19836426 C282.0693904 249.27604936 257.3320493 267.3097771 229.69726562 280.51757812 C228.95476562 280.8965625 228.21226563 281.27554687 227.44726562 281.66601562 C201.15225058 294.50537844 170.17106745 294.83392923 141.61174726 294.720366 C137.87623311 294.70769352 134.14071422 294.70667534 130.40518188 294.70431519 C123.36151501 294.69814818 116.3179117 294.68180352 109.27427256 294.66161621 C101.24257802 294.63910657 93.21088012 294.62822626 85.17916179 294.61822534 C68.68515945 294.59743188 52.1912207 294.56235101 35.69726562 294.51757812 C35.70279638 295.21404449 35.70832714 295.91051086 35.7140255 296.62808228 C35.84702179 313.64112396 35.94605665 330.65403218 36.00813866 347.66748047 C36.03896565 355.89537323 36.08092992 364.12291719 36.14990234 372.35058594 C36.21004919 379.52893135 36.24849567 386.70702395 36.26179659 393.8856144 C36.2695614 397.68034833 36.2875704 401.47435956 36.33164597 405.26885986 C36.75323047 443.0411357 36.75323047 443.0411357 22.69726562 457.51757812 C21.82328125 458.44957031 21.82328125 458.44957031 20.93164062 459.40039062 C10.05555874 469.95658775 -4.31530548 472.94843411 -18.91601562 472.88110352 C-33.32788844 472.56689117 -45.51893983 468.00081943 -56.17773438 458.14257812 C-64.52365937 449.19909286 -69.38896144 436.42304901 -69.46095276 424.2976532 C-69.47074158 423.04548508 -69.4805304 421.79331696 -69.49061584 420.50320435 C-69.49651923 419.1234745 -69.50232972 417.74374426 -69.50805664 416.36401367 C-69.51764107 414.90516384 -69.52765148 413.44631675 -69.53805542 411.98747253 C-69.56504936 408.03336686 -69.5860887 404.07924932 -69.60605741 400.12510276 C-69.62795101 395.99042848 -69.65532317 391.85579056 -69.68211365 387.72114563 C-69.73199494 379.89440328 -69.77695067 372.0676407 -69.82013601 364.24085885 C-69.86954742 355.32915933 -69.92445106 346.41749629 -69.9798156 337.50583208 C-70.09356558 319.17644798 -70.20041979 300.84702944 -70.30273438 282.51757812 C-70.36313904 283.45197723 -70.4235437 284.38637634 -70.48577881 285.34909058 C-70.61125092 287.20922287 -70.61125092 287.20922287 -70.73925781 289.10693359 C-70.82028748 290.3300827 -70.90131714 291.55323181 -70.98480225 292.81344604 C-71.47258218 298.49642401 -72.47296765 304.04644769 -73.55273438 309.64257812 C-73.8843457 311.39127197 -73.8843457 311.39127197 -74.22265625 313.17529297 C-76.05340549 322.63113874 -78.17267889 331.98201152 -80.6953125 341.27685547 C-81.09229121 342.74127292 -81.48193886 344.2077027 -81.86328125 345.67626953 C-85.10932244 358.16082119 -89.92807986 369.80636741 -95.30273438 381.51757812 C-95.64208008 382.25959473 -95.98142578 383.00161133 -96.33105469 383.76611328 C-102.85830869 397.85860435 -111.18241044 410.7230742 -121.30273438 422.51757812 C-122.099375 423.45988281 -122.89601563 424.4021875 -123.71679688 425.37304688 C-134.60242287 437.93543189 -147.70539955 447.65984744 -162.30273438 455.51757812 C-162.88958008 455.8356543 -163.47642578 456.15373047 -164.08105469 456.48144531 C-174.92843484 462.23903977 -186.39034206 465.67950948 -198.30273438 468.51757812 C-199.18977051 468.73075684 -200.07680664 468.94393555 -200.99072266 469.16357422 C-231.36904718 476.11459349 -266.95421874 475.23747017 -296.30273438 464.51757812 C-297.58235461 464.08171906 -298.86232447 463.64688559 -300.14257812 463.21289062 C-339.97279253 449.37511866 -367.08086782 417.38116991 -385.30273438 380.51757812 C-389.30273438 371.68141993 -389.30273438 371.68141993 -389.30273438 367.51757812 C-389.96273437 367.51757812 -390.62273438 367.51757812 -391.30273438 367.51757812 C-391.50382813 368.82275391 -391.50382813 368.82275391 -391.70898438 370.15429688 C-396.57096428 397.69485409 -416.05006697 423.01137387 -438.42773438 439.01757812 C-440.68726925 440.5714468 -442.97965691 442.06067668 -445.30273438 443.51757812 C-446.14868164 444.0500415 -446.14868164 444.0500415 -447.01171875 444.59326172 C-456.0258613 450.17699369 -465.48771557 454.55227022 -475.30273438 458.51757812 C-476.38554688 458.9584375 -477.46835937 459.39929688 -478.58398438 459.85351562 C-527.59789292 478.53114582 -586.98073766 477.45344447 -636.30273438 460.51757812 C-638.30250649 459.8502282 -640.30243059 459.18333273 -642.30273438 458.51757812 C-642.30273438 457.85757812 -642.30273438 457.19757813 -642.30273438 456.51757812 C-643.26695312 456.44667969 -644.23117187 456.37578125 -645.22460938 456.30273438 C-650.17390516 455.58769792 -654.20337731 453.32028082 -658.55273438 450.95507812 C-659.38740234 450.5083374 -660.22207031 450.06159668 -661.08203125 449.60131836 C-668.12936607 445.75849798 -675.21044926 441.62972871 -680.91210938 435.90039062 C-682.40546285 434.3093567 -682.40546285 434.3093567 -685.05273438 432.83007812 C-688.53954074 430.34908129 -690.95740115 427.67509315 -693.68945312 424.41601562 C-695.37263863 422.37512632 -695.37263863 422.37512632 -697.74023438 420.14257812 C-699.30273438 418.51757812 -699.30273438 418.51757812 -699.30273438 416.51757812 C-699.96273437 416.51757812 -700.62273437 416.51757812 -701.30273438 416.51757812 C-704.30273438 413.05603966 -704.30273438 413.05603966 -704.30273438 410.51757812 C-704.96273437 410.51757812 -705.62273437 410.51757812 -706.30273438 410.51757812 C-708.00825043 407.94270167 -709.58094444 405.38004876 -711.11523438 402.70507812 C-711.56519775 401.92841797 -712.01516113 401.15175781 -712.47875977 400.3515625 C-725.12875873 378.2558948 -725.12875873 378.2558948 -724.30273438 367.51757812 C-724.96273437 367.51757812 -725.62273437 367.51757812 -726.30273438 367.51757812 C-726.29274162 368.61060242 -726.29274162 368.61060242 -726.282547 369.72570801 C-726.22188798 376.66669284 -726.17648593 383.60763696 -726.14729786 390.5488205 C-726.13178641 394.11550912 -726.11082213 397.68197479 -726.07641602 401.24853516 C-725.66782352 444.80034998 -725.66782352 444.80034998 -739.99023438 460.45507812 C-742.30273438 462.51757812 -742.30273438 462.51757812 -744.30273438 462.51757812 C-744.30273438 463.17757813 -744.30273438 463.83757812 -744.30273438 464.51757812 C-745.95273437 464.84757812 -747.60273437 465.17757813 -749.30273438 465.51757812 C-749.30273438 466.17757813 -749.30273438 466.83757812 -749.30273438 467.51757812 C-750.08519531 467.72253906 -750.86765625 467.9275 -751.67382812 468.13867188 C-753.19169922 468.54279297 -753.19169922 468.54279297 -754.74023438 468.95507812 C-756.25423828 469.35533203 -756.25423828 469.35533203 -757.79882812 469.76367188 C-760.22025439 470.2773589 -760.22025439 470.2773589 -761.30273438 471.51757812 C-763.09738727 471.61728106 -764.89594021 471.64838394 -766.69335938 471.65039062 C-768.34658203 471.65232422 -768.34658203 471.65232422 -770.03320312 471.65429688 C-771.19464844 471.65042969 -772.35609375 471.6465625 -773.55273438 471.64257812 C-774.69871094 471.64644531 -775.8446875 471.6503125 -777.02539062 471.65429688 C-778.68634766 471.65236328 -778.68634766 471.65236328 -780.38085938 471.65039062 C-781.39567383 471.6492627 -782.41048828 471.64813477 -783.45605469 471.64697266 C-786.17584351 471.52334589 -788.65412135 471.12903005 -791.30273438 470.51757812 C-791.30273438 469.85757812 -791.30273438 469.19757813 -791.30273438 468.51757812 C-792.29273438 468.84757812 -793.28273438 469.17757813 -794.30273438 469.51757812 C-798.67457696 467.97351873 -802.74091536 465.46529042 -806.30273438 462.51757812 C-807.21023438 461.85757812 -808.11773438 461.19757813 -809.05273438 460.51757812 C-809.79523438 459.85757812 -810.53773438 459.19757813 -811.30273438 458.51757812 C-811.30273438 457.52757812 -811.30273438 456.53757812 -811.30273438 455.51757812 C-812.29273438 455.18757813 -813.28273438 454.85757812 -814.30273438 454.51757812 C-815.36523438 452.72460938 -815.36523438 452.72460938 -816.30273438 450.51757812 C-816.79773438 449.50244141 -816.79773438 449.50244141 -817.30273438 448.46679688 C-820.15953438 442.00551875 -821.15030947 435.70293962 -821.90820312 428.74023438 C-822.19566247 425.50778856 -822.19566247 425.50778856 -823.30273438 422.51757812 C-823.39218479 421.09008859 -823.42649556 419.65876383 -823.4257822 418.22847462 C-823.42777325 417.34816918 -823.4297643 416.46786375 -823.43181568 415.56088239 C-823.42890284 414.59299289 -823.42599 413.62510339 -823.42298889 412.62788391 C-823.42384332 411.60034899 -823.42469774 410.57281408 -823.42557806 409.51414174 C-823.42723139 406.05473913 -823.42171385 402.5953845 -823.41625977 399.13598633 C-823.41597784 396.66266888 -823.41613574 394.18935134 -823.41670227 391.71603394 C-823.41693034 386.3827534 -823.41408522 381.04948793 -823.40846443 375.71621132 C-823.40034297 368.00515705 -823.39773355 360.29410871 -823.39647644 352.58305063 C-823.39428694 340.07286048 -823.38762961 327.56267685 -823.37817383 315.05249023 C-823.36899708 302.89884473 -823.36191753 290.745201 -823.35766602 278.59155273 C-823.35740329 277.84260501 -823.35714057 277.0936573 -823.35686988 276.32201419 C-823.35556486 272.56482422 -823.35430115 268.80763424 -823.35305798 265.05044425 C-823.34268854 233.87281747 -823.32499873 202.69519879 -823.30273438 171.51757812 C-824.34683975 171.52423996 -825.39094513 171.53090179 -826.46669006 171.5377655 C-836.36594895 171.59890755 -846.2651689 171.64370831 -856.16457462 171.67301464 C-861.25245675 171.68858842 -866.34018494 171.70967297 -871.42797852 171.74389648 C-876.34930851 171.77678844 -881.2704916 171.79449324 -886.19192314 171.80220985 C-888.0579503 171.80770034 -889.92397054 171.81841974 -891.78993416 171.8347683 C-922.06973001 172.08921389 -922.06973001 172.08921389 -932.04492188 164.12695312 C-933.61768507 162.11459774 -934.49086587 160.14294551 -935.42773438 157.76757812 C-935.7603125 156.94773437 -936.09289062 156.12789062 -936.43554688 155.28320312 C-939.42671301 145.74380842 -940.53232494 129.89379437 -936.30273438 120.51757812 C-932.6295172 114.98789713 -928.32839191 111.24617776 -922.30273438 108.51757812 C-920.98273438 108.51757812 -919.66273438 108.51757812 -918.30273438 108.51757812 C-918.30273438 107.85757813 -918.30273438 107.19757813 -918.30273438 106.51757812 C-909.30811104 103.56311244 -900.33780614 101.34125446 -891.05273438 99.51757812 C-888.495154 98.99947001 -885.93786013 98.47994554 -883.38085938 97.95898438 C-882.16205078 97.71164551 -880.94324219 97.46430664 -879.6875 97.20947266 C-854.99079168 92.16111206 -834.63119631 84.35402102 -819.99023438 62.39257812 C-816.55462021 56.96084429 -813.56039996 51.3012386 -810.54882812 45.62695312 C-793.42061512 13.35755878 -793.42061512 13.35755878 -775.30273438 7.51757812 C-771.18452027 6.92047726 -767.14699234 6.84997684 -762.99023438 6.89257812 C-761.32855225 6.90514648 -761.32855225 6.90514648 -759.63330078 6.91796875 C-749.05387191 7.21127838 -741.97654878 9.48319226 -734.36523438 17.14257812 C-726.21964462 27.53866089 -725.15768966 39.21197043 -725.14451599 51.89465332 C-725.13957801 52.9142097 -725.13464004 53.93376609 -725.12955242 54.98421812 C-725.1142443 58.38661259 -725.10583497 61.7889883 -725.09741211 65.19140625 C-725.08782833 67.63590661 -725.07781796 70.08040534 -725.06741333 72.52490234 C-725.04600093 77.78059699 -725.02754629 83.03629311 -725.0118084 88.29200745 C-724.98904918 95.8907906 -724.96091493 103.48954646 -724.93148912 111.08830637 C-724.88388716 123.41823383 -724.84060306 135.74817249 -724.80004883 148.078125 C-724.76065618 160.05209219 -724.71922099 172.02604945 -724.67504883 184 C-724.67232456 184.73867312 -724.66960028 185.47734623 -724.66679346 186.23840338 C-724.65311336 189.9442881 -724.63939321 193.65017267 -724.62565315 197.35605717 C-724.51180463 228.07654363 -724.40504189 258.79705095 -724.30273438 289.51757812 C-724.10407272 288.90913055 -723.90541107 288.30068298 -723.70072937 287.67379761 C-723.43621475 286.87056061 -723.17170013 286.06732361 -722.89916992 285.23974609 C-722.63863327 284.44567352 -722.37809662 283.65160095 -722.10966492 282.83346558 C-718.60965529 272.78845186 -712.94618208 263.75645042 -706.30273438 255.51757812 C-705.62597656 254.67582031 -704.94921875 253.8340625 -704.25195312 252.96679688 C-693.37845003 240.18496417 -678.22732751 229.97743863 -662.30273438 224.51757812 C-661.31273437 224.51757812 -660.32273437 224.51757812 -659.30273438 224.51757812 C-661.75853819 221.74037717 -664.41436594 220.29925211 -667.67773438 218.58007812 C-674.67834011 214.58336867 -680.20501599 209.47510098 -685.93261719 203.84814453 C-687.036799 202.77583682 -688.17639027 201.74005811 -689.32617188 200.71679688 C-706.37014583 185.23318674 -716.15913634 158.83378748 -717.42749023 136.30126953 C-718.50879105 104.46858198 -709.07149893 76.08399763 -687.52929688 52.43554688 C-660.96425632 24.20680979 -619.20150444 8.90242093 -580.8984375 7.13232422 C-574.13645229 6.93551269 -567.37911508 6.95571138 -560.61523438 7.01757812 C-559.42817902 7.02311707 -558.24112366 7.02865601 -557.01809692 7.03436279 C-539.84094564 7.12840172 -523.08114155 7.50277749 -506.30273438 11.51757812 C-505.36929199 11.73720215 -504.43584961 11.95682617 -503.47412109 12.18310547 C-468.13145959 20.79479381 -434.5997312 38.97014652 -414.70507812 70.38476562 C-403.5437198 89.04215835 -399.84100962 108.08177518 -398.30273438 129.51757812 C-398.12750244 128.90519287 -397.95227051 128.29280762 -397.77172852 127.66186523 C-390.18156223 101.68348452 -377.74131345 78.18429111 -360.30273438 57.51757812 C-359.32334588 56.2885882 -358.34413233 55.0594588 -357.36523438 53.83007812 C-356.68460938 53.06695312 -356.00398437 52.30382812 -355.30273438 51.51757812 C-354.64273438 51.51757812 -353.98273437 51.51757812 -353.30273438 51.51757812 C-353.07972656 50.95296875 -352.85671875 50.38835937 -352.62695312 49.80664062 C-341.40797914 30.41336997 -307.17491989 17.391489 -286.83544922 11.84472656 C-275.57017027 9.0211353 -264.60223279 7.37253576 -252.97851562 7.27929688 C-251.99642624 7.27122513 -251.01433685 7.26315338 -250.00248718 7.25483704 C-247.92574796 7.24106039 -245.8489867 7.2303098 -243.7722168 7.22241211 C-241.69076693 7.21098353 -239.60934421 7.19067986 -237.52807617 7.16088867 C-218.78614911 6.89350962 -201.10343374 8.94430453 -183.30273438 15.08007812 C-182.31563477 15.41595947 -181.32853516 15.75184082 -180.31152344 16.09790039 C-160.33686404 23.18223349 -143.6432801 33.99091987 -128.30273438 48.51757812 C-127.4803125 49.28714844 -126.65789063 50.05671875 -125.81054688 50.84960938 C-91.49100875 83.93963134 -74.90371383 134.7492945 -70.76660156 181.29833984 C-70.63520782 182.76894363 -70.63520782 182.76894363 -70.50115967 184.26925659 C-70.43567932 185.0112027 -70.37019897 185.7531488 -70.30273438 186.51757812 C-70.29942423 185.81042727 -70.29611408 185.10327641 -70.29270363 184.37469673 C-70.21135026 167.13827732 -70.11921774 149.90194892 -70.01520729 132.66565132 C-69.96516559 124.33017929 -69.91872196 115.99471667 -69.88085938 107.65917969 C-69.84783466 100.39074844 -69.80794617 93.12239216 -69.75994432 85.85404384 C-69.7347831 82.00840346 -69.71297169 78.16281213 -69.69939041 74.31711197 C-69.68647521 70.69080551 -69.66432095 67.0646682 -69.63535118 63.43845558 C-69.62208526 61.48663739 -69.61837228 59.53476142 -69.61503601 57.582901 C-69.46291106 41.45786198 -65.65101834 27.30492044 -54.30664062 15.42773438 C-39.77800761 1.52064716 -19.16218146 -0.10207261 0 0 Z " fill="#5774A8" transform="translate(1005.302734375,202.482421875)"/>
<path d="M0 0 C0.90983643 0.00684814 1.81967285 0.01369629 2.75708008 0.02075195 C21.4932081 0.46100067 34.94735741 7.57235741 47.97265625 20.59765625 C61.63853336 35.1061308 67.51682447 54.42251922 71.8125 73.4375 C72.31330078 75.29568359 72.31330078 75.29568359 72.82421875 77.19140625 C74.11238652 82.31439319 74.69298282 87.51133551 75.3125 92.75 C75.48845703 94.1740918 75.48845703 94.1740918 75.66796875 95.62695312 C75.91991666 97.69807327 76.16304099 99.77027847 76.39916992 101.84326172 C76.69741665 104.43675746 77.01424977 107.02449976 77.3449707 109.61376953 C78.81400416 121.6076145 79.09060374 133.4667013 79.01831055 145.54248047 C79.00009996 148.67033158 78.9978017 151.7978826 78.99804688 154.92578125 C78.82622099 254.22021051 78.82622099 254.22021051 51.8125 287.4375 C51.12285156 288.28957031 50.43320312 289.14164063 49.72265625 290.01953125 C38.75426281 302.87703288 24.68680356 309.78952813 7.8125 311.4375 C-11.55925692 312.49250878 -27.27555773 308.19341439 -42.26953125 295.703125 C-50.39071293 288.20664961 -56.95338653 277.60310282 -61.1875 267.4375 C-61.57292969 266.51839844 -61.95835937 265.59929687 -62.35546875 264.65234375 C-66.31579394 254.42861196 -68.48403113 243.86019584 -70.640625 233.13671875 C-70.9867681 231.42825531 -71.34468036 229.72209822 -71.71875 228.01953125 C-73.28928876 220.71832434 -74.13717274 213.36987621 -74.8125 205.9375 C-74.87786957 205.21961304 -74.94323914 204.50172607 -75.0105896 203.76208496 C-76.40260602 187.75766644 -76.48949983 171.74302061 -76.5 155.6875 C-76.50340393 154.4595874 -76.50680786 153.2316748 -76.51031494 151.96655273 C-76.53560769 136.01880703 -75.89923366 120.29461009 -74.1875 104.4375 C-74.0828241 103.45551636 -73.97814819 102.47353271 -73.87030029 101.46179199 C-70.91799177 74.12338175 -65.4218096 45.66726166 -48.1875 23.4375 C-47.63707031 22.70660156 -47.08664062 21.97570312 -46.51953125 21.22265625 C-39.55268322 12.60097496 -30.59940482 6.94683486 -20.1875 3.4375 C-19.0432959 3.03869629 -19.0432959 3.03869629 -17.87597656 2.63183594 C-11.81801797 0.64927688 -6.35984089 -0.074569 0 0 Z " fill="#FEFEFE" transform="translate(764.1875,286.5625)"/>
<path d="M0 0 C16.5 -0.04125 33 -0.0825 50 -0.125 C55.17945313 -0.14320801 60.35890625 -0.16141602 65.6953125 -0.18017578 C72.09765625 -0.18920898 72.09765625 -0.18920898 75.10986328 -0.19088745 C77.18083561 -0.19392683 79.25180475 -0.20089362 81.32275391 -0.21115112 C107.92982488 -0.33616733 135.12616703 1.45860381 156 20 C167.98802973 32.48504589 172.55592567 46.88023024 172.375 63.9375 C172.38660156 65.02740234 172.39820313 66.11730469 172.41015625 67.24023438 C172.34842049 84.55711618 166.11992946 99.03960479 153.9375 111.27734375 C133.92832824 130.3245361 107.21392312 131.47945397 81.15234375 131.29296875 C79.06482179 131.2885455 76.97729648 131.28549262 74.88977051 131.28381348 C67.23896219 131.26822852 59.58822558 131.22634548 51.9375 131.1875 C34.798125 131.125625 17.65875 131.06375 0 131 C0 87.77 0 44.54 0 0 Z " fill="#FEFEFE" transform="translate(1041,285)"/>
<path d="M0 0 C0.93199219 0.2165625 1.86398437 0.433125 2.82421875 0.65625 C19.02610458 4.92927483 33.50995411 16.54987927 42.09863281 30.82617188 C52.49318776 49.20870628 56.18143167 68.1259583 50.97094727 88.78515625 C45.96067063 106.40480125 36.32575193 120.18291577 20.25 129.3203125 C-1.41065261 140.51512094 -29.37330383 144.13591784 -53 137 C-62.5081216 133.64782159 -71.09281713 129.30572811 -79 123 C-80.02287109 122.25556641 -80.02287109 122.25556641 -81.06640625 121.49609375 C-92.06455498 112.90849817 -97.47231121 100.08802187 -101 87 C-101.36738281 85.71029297 -101.36738281 85.71029297 -101.7421875 84.39453125 C-104.23621869 74.19633521 -103.97068774 63.03092517 -101 53 C-100.80277344 52.3301709 -100.60554688 51.6603418 -100.40234375 50.97021484 C-97.32112077 40.93470988 -93.51636239 32.35526012 -87 24 C-86.360625 23.17886719 -85.72125 22.35773438 -85.0625 21.51171875 C-80.39111197 15.90793674 -75.17943221 11.83678179 -69 8 C-68.15695312 7.46375 -67.31390625 6.9275 -66.4453125 6.375 C-46.69404097 -5.34682287 -21.74147806 -5.27066135 0 0 Z " fill="#FDFEFE" transform="translate(472,462)"/>
<path d="M0 0 C1.35290936 1.16514818 2.68711485 2.35243116 4 3.5625 C4.68320312 4.14386719 5.36640625 4.72523438 6.0703125 5.32421875 C16.41254418 14.7030106 21.22987509 27.49664205 22.27734375 41.1875 C22.71980211 58.17790103 18.88375205 74.1747895 6.9296875 86.79296875 C-0.17665176 93.30951062 -7.99162862 97.27665962 -17 100.5625 C-17.96164062 100.91441406 -18.92328125 101.26632812 -19.9140625 101.62890625 C-40.47602152 107.84954955 -66.12210961 106.41215445 -85.5625 97.375 C-99.87490518 89.55155241 -109.28153588 78.10223515 -114 62.5625 C-117.54655255 46.98949682 -116.40297969 29.62784354 -108.390625 15.78125 C-106.71953046 13.23628033 -104.94675427 10.90187698 -103 8.5625 C-102.42765625 7.86640625 -101.8553125 7.1703125 -101.265625 6.453125 C-77.48529257 -19.76621588 -27.48640586 -20.56773863 0 0 Z " fill="#FEFEFE" transform="translate(494,292.4375)"/>
<path d="M0 0 C1.32040283 0.01522705 1.32040283 0.01522705 2.66748047 0.03076172 C16.01841368 0.35011465 26.43092437 5.42439811 36.25390625 14.4765625 C46.02472608 24.73275783 50.48242057 38.11487715 50.34375 52.0859375 C49.07193442 66.95911417 41.24878598 79.29264538 30.2421875 88.9765625 C18.18992507 98.11385914 4.59622405 98.34164049 -9.9375 97.375 C-22.26432071 95.40908463 -32.90952243 87.13105514 -40.1796875 77.19921875 C-48.05662269 64.54360954 -50.49852898 51.01952287 -47.51708984 36.29931641 C-45.5703363 29.0822214 -41.91180784 22.89024912 -36.9375 17.375 C-36.34066406 16.69824219 -35.74382812 16.02148438 -35.12890625 15.32421875 C-25.5123943 5.04983677 -14.03312038 -0.23446927 0 0 Z " fill="#7E519C" transform="translate(1352.9375,192.625)"/>
<path d="M0 0 C1.01835116 3.22866789 0.95120267 5.63934477 0.4765625 8.9765625 C-2.68463089 33.57441989 -2.74145123 58.23014043 -3 83 C-4.11269542 82.04753451 -5.22520888 81.09485644 -6.33764648 80.14208984 C-6.95719711 79.61159027 -7.57674774 79.0810907 -8.21507263 78.53451538 C-9.6825804 77.272888 -11.14135034 76.00110391 -12.59765625 74.7265625 C-23.00027477 65.85713498 -36.48488951 56.95837672 -50 54 C-50 53.34 -50 52.68 -50 52 C-49.40574219 51.731875 -48.81148437 51.46375 -48.19921875 51.1875 C-26.84487517 41.09151174 -8.40230513 22.29842515 0 0 Z " fill="#FAFBFC" transform="translate(597,373)"/>
<path d="M0 0 C0 0.66 0 1.32 0 2 C-3.3 2.33 -6.6 2.66 -10 3 C-10 2.34 -10 1.68 -10 1 C-6.52674819 -0.1577506 -3.63932552 -0.06866652 0 0 Z " fill="#8668A7" transform="translate(1198,492)"/>
</svg>
